 <svg  version="1.0" xmlns="http://www.w3.org/2000/svg"  width="633.000000pt" height="594.000000pt" viewBox="0 0 633.000000 594.000000"  preserveAspectRatio="xMidYMid meet">  <g transform="translate(0.000000,594.000000) scale(0.100000,-0.100000)" fill="#0229c5" stroke="none"> <path d="M2757 5835 c-103 -7 -196 -17 -205 -21 -9 -4 -42 -11 -72 -15 -65 -9 -161 -30 -245 -54 -33 -10 -76 -21 -95 -26 -112 -27 -509 -202 -610 -269 -14 -9 -72 -48 -130 -86 -58 -38 -121 -82 -140 -99 -19 -17 -64 -52 -100 -79 -98 -75 -269 -243 -360 -356 -29 -36 -58 -70 -65 -75 -7 -6 -28 -35 -48 -65 -20 -30 -49 -73 -64 -96 -36 -52 -40 -58 -116 -189 -60 -104 -86 -155 -127 -250 -9 -22 -26 -60 -37 -85 -36 -81 -70 -183 -97 -290 -48 -189 -54 -214 -65 -285 -6 -38 -15 -99 -21 -135 -31 -189 -16 -593 31 -830 15 -75 58 -268 69 -305 19 -67 42 -141 51 -160 4 -11 17 -42 28 -70 31 -78 112 -252 157 -335 54 -101 187 -301 249 -376 27 -34 66 -81 85 -105 64 -80 275 -283 370 -357 204 -157 325 -234 515 -327 105 -51 224 -105 265 -120 41 -15 86 -31 100 -36 41 -14 354 -88 417 -98 32 -5 92 -15 133 -22 49 -9 169 -14 345 -14 237 0 286 3 400 23 72 13 144 27 160 32 17 5 66 17 110 26 206 43 327 86 554 196 242 118 257 128 511 315 115 84 373 338 477 468 234 293 424 665 513 1005 37 142 42 164 46 185 76 432 78 634 13 1020 -18 107 -57 284 -78 355 -6 19 -16 56 -23 82 -8 26 -17 50 -21 54 -4 4 -7 14 -7 22 0 8 -6 28 -14 45 -8 18 -26 57 -39 87 -79 176 -144 301 -215 410 -23 36 -42 73 -42 83 0 11 185 204 445 465 245 245 445 451 445 458 0 9 -162 175 -286 293 -3 4 -554 -540 -792 -781 -46 -48 -84 -78 -97 -78 -13 0 -51 31 -101 83 -44 45 -124 116 -177 157 -53 41 -118 92 -144 112 -27 21 -84 58 -128 84 -44 25 -109 64 -144 86 -59 37 -196 101 -281 133 -19 7 -75 29 -125 48 -142 56 -333 107 -473 127 -35 5 -66 11 -70 14 -8 4 -219 21 -377 30 -38 2 -155 -2 -258 -9z m518 -255 c165 -22 269 -42 345 -65 30 -9 83 -23 117 -31 154 -35 444 -171 636 -298 218 -143 467 -360 467 -406 0 -32 -275 -310 -307 -310 -16 0 -103 80 -295 269 -269 266 -318 311 -335 311 -4 0 -72 -63 -151 -140 l-142 -140 53 -57 c29 -32 237 -241 461 -465 l407 -407 285 284 c159 159 293 285 303 285 36 0 62 -40 201 -320 70 -141 135 -345 189 -595 45 -211 60 -644 28 -820 -10 -49 -22 -117 -27 -150 -18 -104 -112 -420 -131 -440 -5 -5 -9 -17 -9 -26 0 -16 -127 -275 -164 -334 -54 -85 -149 -224 -202 -295 -79 -104 -430 -450 -457 -450 -5 0 -46 -29 -92 -65 -45 -36 -86 -65 -89 -65 -4 0 -23 -11 -44 -23 -32 -21 -122 -70 -232 -128 -63 -33 -203 -87 -310 -120 -58 -17 -119 -38 -137 -45 -17 -8 -39 -14 -49 -14 -10 0 -31 -4 -48 -9 -214 -66 -674 -86 -941 -41 -197 33 -218 37 -250 48 -16 5 -57 18 -90 27 -33 10 -69 21 -80 25 -11 5 -51 18 -90 30 -38 11 -95 33 -125 46 -63 29 -108 49 -130 58 -8 3 -28 15 -45 26 -16 10 -57 33 -90 50 -104 53 -153 84 -235 149 -44 35 -95 73 -113 85 -90 61 -359 335 -437 444 -190 266 -305 482 -392 737 -17 50 -35 106 -39 125 -4 19 -12 53 -17 75 -28 117 -42 188 -46 232 -3 27 -9 60 -14 73 -15 41 -24 452 -12 575 16 170 76 436 135 606 77 218 233 500 403 729 57 77 287 312 377 386 92 75 305 226 360 255 70 37 273 138 315 157 46 20 198 68 305 97 33 8 75 20 93 26 18 6 61 15 95 20 34 5 114 18 177 28 161 26 430 26 615 1z"/> <path d="M2965 4244 c-129 -9 -312 -46 -395 -81 -348 -146 -552 -351 -695 -698 -40 -96 -70 -255 -80 -426 -8 -126 13 -351 41 -449 9 -30 18 -68 21 -83 3 -16 12 -31 19 -34 8 -3 14 -13 14 -23 0 -19 49 -125 80 -175 11 -16 26 -43 34 -60 22 -48 140 -175 241 -260 75 -62 265 -164 370 -198 144 -46 168 -50 368 -56 329 -10 472 19 722 146 46 24 63 34 155 97 56 38 214 208 251 270 58 99 59 99 48 112 -6 7 -42 32 -82 55 -40 24 -97 60 -127 80 -30 20 -82 51 -115 69 -33 18 -69 39 -80 46 -28 20 -42 17 -49 -10 -9 -38 -169 -191 -241 -232 -103 -57 -241 -101 -342 -109 -128 -10 -271 14 -358 59 -16 9 -35 16 -40 16 -24 0 -118 71 -187 141 -55 56 -83 95 -115 160 -69 143 -104 322 -85 438 6 36 14 86 18 111 6 42 52 168 78 214 24 44 109 147 154 187 53 47 201 124 277 144 150 40 376 21 493 -41 25 -13 49 -24 54 -24 6 0 41 -21 78 -46 83 -55 189 -163 219 -223 21 -40 25 -43 53 -37 16 3 50 19 74 36 25 16 47 30 50 30 3 0 20 11 37 25 18 13 41 28 52 32 42 17 215 136 215 148 0 7 -7 18 -15 25 -8 7 -15 17 -15 23 0 26 -117 180 -192 253 -71 69 -177 154 -192 154 -3 0 -24 13 -48 28 -40 27 -97 55 -173 87 -123 52 -410 90 -590 79z"/> </g> </svg> 