 <svg  version="1.0" xmlns="http://www.w3.org/2000/svg"  width="900.000000pt" height="717.000000pt" viewBox="0 0 900.000000 717.000000"  preserveAspectRatio="xMidYMid meet">  <g transform="translate(0.000000,717.000000) scale(0.100000,-0.100000)" fill="#115dc0" stroke="none"> <path d="M4165 5050 c-99 -17 -241 -54 -295 -77 -14 -6 -45 -19 -70 -28 -69 -27 -170 -78 -182 -92 -6 -7 -15 -13 -20 -13 -7 0 -63 -38 -113 -78 -5 -4 -37 -28 -70 -54 -88 -67 -202 -192 -276 -304 -41 -60 -58 -88 -98 -164 -10 -19 -35 -74 -54 -120 -157 -378 -139 -841 47 -1221 39 -78 78 -148 98 -174 4 -5 28 -38 53 -72 25 -34 81 -97 123 -141 254 -260 550 -404 925 -452 255 -32 574 25 827 149 472 231 794 698 840 1220 27 312 -49 631 -216 912 -19 31 -34 63 -34 70 0 8 108 122 240 254 l240 240 -72 72 c-40 40 -77 73 -82 73 -6 0 -112 -101 -236 -225 -124 -124 -232 -225 -239 -225 -8 0 -34 20 -60 45 -58 57 -189 158 -272 210 -55 34 -90 51 -194 94 -87 37 -164 61 -270 87 -79 19 -452 29 -540 14z m423 -121 c13 -5 38 -9 57 -9 31 0 55 -6 195 -47 78 -24 237 -99 281 -134 20 -16 40 -29 44 -29 25 0 235 -185 235 -207 0 -18 -153 -173 -171 -173 -8 0 -84 70 -169 155 -85 85 -160 155 -166 155 -13 0 -144 -131 -144 -145 0 -6 108 -118 240 -250 l240 -240 150 150 c82 83 155 151 163 153 8 2 24 -10 35 -25 28 -39 122 -236 122 -255 0 -9 7 -29 15 -44 8 -16 15 -39 15 -52 0 -13 4 -31 9 -41 22 -41 42 -210 42 -355 0 -143 -6 -190 -36 -301 -8 -27 -16 -59 -19 -70 -23 -95 -94 -248 -166 -357 -217 -331 -551 -546 -960 -620 -149 -26 -421 -11 -565 32 -117 36 -170 56 -245 92 -224 109 -412 271 -548 473 -91 133 -183 345 -203 465 -4 25 -12 65 -18 90 -14 60 -14 404 0 455 6 22 14 61 19 88 36 198 194 483 360 647 183 183 362 286 635 370 42 12 209 39 275 43 76 5 250 -4 278 -14z"/> <path d="M4270 4193 c-36 -8 -77 -21 -92 -29 -14 -8 -31 -14 -36 -14 -23 0 -139 -77 -185 -124 -66 -66 -107 -132 -160 -257 -29 -67 -42 -227 -28 -340 13 -102 20 -126 74 -234 50 -100 137 -197 215 -240 21 -11 44 -25 52 -30 46 -30 180 -63 294 -72 45 -4 103 1 165 12 93 16 109 21 196 62 51 23 139 90 186 140 44 47 86 116 73 120 -5 2 -38 22 -74 45 -36 23 -84 52 -107 64 -40 22 -43 22 -58 6 -60 -65 -101 -100 -138 -119 -102 -52 -114 -55 -220 -51 -88 3 -110 7 -162 32 -68 34 -145 110 -175 174 -11 23 -27 75 -36 115 -37 179 53 370 212 448 62 30 73 32 173 32 89 0 112 -4 146 -22 22 -11 44 -21 49 -21 5 0 33 -18 61 -40 43 -33 76 -71 111 -128 4 -6 208 120 221 136 27 32 -107 190 -217 255 -34 21 -64 37 -67 37 -3 0 -19 6 -36 14 -99 44 -309 58 -437 29z"/> </g> </svg> 